<?xml version="1.0" encoding="utf-8"?>
<!-- Generator: Adobe Illustrator 24.0.2, SVG Export Plug-In . SVG Version: 6.00 Build 0)  -->
<svg version="1.1" id="layer" xmlns="http://www.w3.org/2000/svg" xmlns:xlink="http://www.w3.org/1999/xlink" x="0px" y="0px"
	 viewBox="0 0 6922.4 2565.1" style="enable-background:new 0 0 6922.4 2565.1;" xml:space="preserve">
<style type="text/css">
	.st0{fill:#00CAFF;}
	.st1{fill:#7CE4FF;}
	.st2{fill-rule:evenodd;clip-rule:evenodd;fill:#F5393A;}
	.st3{fill-rule:evenodd;clip-rule:evenodd;fill:#04B4E0;}
	.st4{fill-rule:evenodd;clip-rule:evenodd;fill:#EBEBEB;}
	.st5{fill-rule:evenodd;clip-rule:evenodd;fill:url(#SVGID_1_);}
	.st6{fill-rule:evenodd;clip-rule:evenodd;}
	.st7{fill-rule:evenodd;clip-rule:evenodd;fill:#E6E6E6;}
	.st8{opacity:0.2196;}
	.st9{fill:#FC3A3B;}
</style>
<path id="bg-blue" class="st0" d="M2563.7,1281.8C2563.7,573.9,1989.8,0,1281.8,0C594.2,0,33,541.5,1.4,1221.3v121
	C33,2022.2,594.2,2563.7,1281.8,2563.7C1989.8,2563.7,2563.7,1989.8,2563.7,1281.8z"/>
<path id="bg-blue-light" class="st1" d="M1281.8,2563.7c707.9,0,1281.8-573.9,1281.8-1281.8c0-187.6-40.3-365.8-112.7-526.4
	c-313.9-270-716.2-432.2-1154.9-432.2c-460.5,0-881,178.7-1201.1,473.3C33.8,946.3,0,1110.1,0,1281.8
	C0,1989.8,573.9,2563.7,1281.8,2563.7z"/>
<g id="dude">
	<g id="head_1_">
		<g id="headred">
			<g>
				<ellipse class="st2" cx="1276.4" cy="934.9" rx="790.9" ry="808.4"/>
			</g>
		</g>
		<g id="faceshadow">
			<g>
				<path class="st3" d="M2089.4,1673.2c-10.3-356.9-249.6-896-249.6-896S1712,606.7,1270.4,606.7S724.2,777.2,724.2,777.2
					s-270.5,550-247.3,901.8c30.6,463.7,404.4,759.2,840,749.8C1751.5,2419.4,2099.6,2026.2,2089.4,1673.2z"/>
			</g>
		</g>
		<g id="Helmet">
			<g>
				<path class="st4" d="M2037.8,660c-173.8-198.9-483.3-253-767.7-256.6c-277.9-3.6-610.3,68.2-738.6,255.7
					c-60.7,88.7-128.6,921.8-75.2,1061.1c99.2,250.6,417.6,512.9,819.4,528.2c328.5,12.5,750.8-219.2,854.5-563.3
					C2171.9,1399.6,2074.3,770.6,2037.8,660z"/>
			</g>
		</g>
		<g id="face_copy">
			<g>
				<linearGradient id="SVGID_1_" gradientUnits="userSpaceOnUse" x1="1288.5204" y1="2044.7894" x2="1288.5204" y2="606.6751">
					<stop  offset="0" style="stop-color:#C6A29F"/>
					<stop  offset="1" style="stop-color:#FFD3C4"/>
				</linearGradient>
				<path class="st5" d="M1865.7,777.2c0,0-133.8-170.6-595.8-170.6c-462.1,0-571.5,170.6-571.5,170.6s-56.1,469.2-56.1,821.8
					c0,122.4,257.7,445.8,660.2,445.8c348,0,632.3-295.9,632.3-435.6C1934.8,1252.2,1865.7,777.2,1865.7,777.2z"/>
			</g>
		</g>
		<g id="lefteye">
			<g>
				<ellipse class="st6" cx="1057.4" cy="1187.7" rx="70.2" ry="70.3"/>
			</g>
		</g>
		<g id="lefteye_copy">
			<g>
				<ellipse class="st6" cx="1510.4" cy="1187.7" rx="70.2" ry="70.3"/>
			</g>
		</g>
		<g id="mouth">
			<g>
				<path class="st6" d="M979.1,1449.3c0,0,26.1,296.5,304.7,296.5c278.5,0,304.7-296.5,304.7-296.5H979.1z"/>
			</g>
		</g>
		<g id="teeth">
			<g>
				<polygon class="st7" points="1021.8,1465.3 1031.4,1493 1539.8,1493.2 1548.4,1464.7 				"/>
			</g>
		</g>
		<g id="headshadow" class="st8">
			<g>
				<path class="st6" d="M1867.6,775.2c0,0-165.4-175.8-594.5-169.1c-482.4,7.5-574.5,172.3-574.5,172.3l-6.7,71.2
					c0,0,181.4-167.6,599.2-167.6c417.8,0,583.9,165.1,583.9,165.1L1867.6,775.2z"/>
			</g>
		</g>
	</g>
</g>
<g id="text">
	<path class="st9" d="M3118.2,1368c-62.5,35.6-111.1,86.3-145.9,152.3c-34.8,66-52.2,134.7-52.2,206.3c0,71.1,17.2,139.3,51.6,204.7
		c34.4,65.3,82.6,116.1,144.7,152.3c62.1,36.2,126.9,54.3,194.4,54.3c68,0,133.1-18.1,195.3-54.3c62.3-36.2,110.6-87,145-152.3
		c34.4-65.3,51.6-133.5,51.6-204.7c-0.4-67.7-33.6-102.4-99.5-104.1l-195.9-0.6c-65.1,0.9-97.7,35.6-97.7,104.1
		c0,67.7,33,101.3,98.9,100.9h81.8c-15.9,35.6-41.1,61.8-75.7,78.7c-34.6,16.9-68.8,25.4-102.6,25.4c-34.2,0-66.7-9-97.7-27
		c-30.9-18-55-43.3-72.3-75.8c-17.3-32.5-25.9-66.8-25.9-102.8c0-36,8.7-70.5,26.2-103.5c17.5-33,41.8-58.3,72.9-75.8
		c31.1-17.6,63.4-26.3,96.8-26.3l195.3-1.3c63.5,0.9,95.6-32.5,96.4-100.2c-0.8-69-33-103.7-96.4-104.1l-196.6,0.6
		C3244.9,1314.7,3180.7,1332.5,3118.2,1368z"/>
	<path class="st9" d="M4419.9,2137.2c16.3,0,32.2-4.4,47.9-13.2c15.7-8.8,27.9-21.4,36.6-37.9c8.7-16.5,13.1-33.7,13.1-51.7
		c0-18-48.9-129.9-146.8-335.7c-97.9-205.8-151.1-316.9-159.6-333.2c-8.5-16.3-20.6-29-36-38.2c-15.5-9.2-31.7-13.8-48.8-13.8
		c-16.7,0-32.9,4.6-48.5,13.8c-15.7,9.2-27.8,22-36.3,38.2c-8.5,16.3-61.5,127.3-158.7,333.2c-97.3,205.8-145.9,317.7-145.9,335.7
		c0,18,4.4,35.2,13.1,51.7c8.7,16.5,20.9,29.1,36.3,37.9c15.5,8.8,31.5,13.2,48.2,13.2H4419.9z M3992,1930.3l134.3-289.8
		l134.3,289.8H3992z"/>
	<path class="st9" d="M4606.7,1416.9v616.9c-0.4,69,32.1,103.2,97.7,102.8c64.7-0.4,97.3-34.7,97.7-102.8v-361.1
		c65.1,68.5,106,111.7,122.7,129.5c16.7,17.8,40.7,26.7,72,26.7c32.1,0,56.3-8.7,72.3-26c16.1-17.3,56.9-61.4,122.4-132v363
		c1.2,69,34,103.7,98.3,104.1c65.9-0.9,98.9-35.6,98.9-104.1l-0.6-616.9c-0.4-67.7-33-101.7-97.7-102.2c-32.2,0-56.4,8.9-72.6,26.7
		c-16.3,17.8-89.5,95.2-219.8,232.3c-131.9-138.4-205.6-215.9-221.3-232.6c-15.7-16.7-40-25.5-72.9-26.3
		C4639,1314.7,4606.7,1348.8,4606.7,1416.9L4606.7,1416.9z"/>
	<path class="st9" d="M5475.9,1417.5V2037c0.4,66.4,33,99.6,97.7,99.6h488.3c64.3-0.9,96.4-34.9,96.4-102.2
		c0-69-32.8-103.7-98.3-104.1h-388.2V1521h388.8c65.9-1.3,98.9-36.8,98.9-106.7c-0.4-65.5-30.9-98.7-91.6-99.6l-494.5-1.3
		C5508.9,1314.7,5476.3,1349.4,5475.9,1417.5L5475.9,1417.5z M5629.9,1829.4h381.9c64.7,0,97.7-34.3,98.9-102.8
		c-0.8-68.1-33.8-102.4-98.9-102.8h-382.6c-63.9,0.9-96,35.6-96.4,104.1C5532.9,1796,5565.2,1829.8,5629.9,1829.4L5629.9,1829.4z"/>
	<path class="st9" d="M6823.5,1314.1h-293.6c-195.7,0.4-293.6,85.5-293.6,255.1v3.2c0,169.2,97.9,254,293.6,254.5h95.8
		c66.7-0.4,100.1,16.9,100.1,52c0,34.7-33,52.3-98.9,52.7l-294.2,1.9c-63.9-0.9-96,32.8-96.4,100.9c0,66.8,32.4,100.5,97.1,100.9
		H6627c197-0.9,295.5-85.5,295.5-253.8c-0.8-173.1-99.5-260-296.1-260.9h-95.8c-65.9,0.4-99.3-15.6-100.1-48.2
		c0.4-34.3,33.6-51.8,99.5-52.7l297.3,0.6c62.7-0.4,94-34.9,94-103.5C6920.8,1348.8,6888.2,1314.5,6823.5,1314.1L6823.5,1314.1z"/>
	<path class="st9" d="M3541.9,376.4c-69.2,0-103.8,36.4-103.8,109.2v216.4l-359.9,0c-71.3-0.4-106.5,37.7-106.5,110.5
		c0.9,71.9,36.2,107.2,106.6,107.2l359.8,0v219.1c-0.4,71.5,33.7,107.2,102.5,107.2h1.3c68.3,0,102.5-36.2,102.5-108.5l0.6-651.9
		C3644.5,412.9,3610.2,376.4,3541.9,376.4L3541.9,376.4z M3026.3,377.1c-68.7,0.9-103.1,37.5-103.1,109.9v651.2
		c0,71.5,34.2,107.4,102.5,107.9c68.7-0.9,103.3-37.1,103.8-108.5l0.6-651.2C3130,414,3095.5,377.6,3026.3,377.1L3026.3,377.1z"/>
	<path class="st9" d="M3736.5,487v654c0.4,70.1,34.8,105.1,103.1,105.1h515.6c67.9-0.9,101.8-36.9,101.8-107.9
		c0-72.8-34.6-109.4-103.8-109.9h-409.9V596.2h410.5c69.6-1.4,104.4-38.9,104.4-112.6c-0.4-69.2-32.7-104.2-96.7-105.1l-522-1.4
		C3771.3,378.5,3736.9,415.1,3736.5,487L3736.5,487z M3907.4,921.9h394.9c68.3,0,103.1-36.2,104.4-108.5
		c-0.9-71.9-35.7-108.1-104.4-108.5h-395.5c-67.5,0.9-101.4,37.5-101.8,109.9C3805,886.6,3839.1,922.3,3907.4,921.9L3907.4,921.9z"
		/>
	<path class="st9" d="M4549.8,487v654c0.4,70.1,34.8,105.1,103.1,105.1h515.6c67.9-0.9,101.8-36.9,101.8-107.9
		c0-72.8-34.6-109.4-103.8-109.9h-409.9l0.6-544.7c-0.4-69.2-35.2-104.7-104.4-106.5C4584.6,378.5,4550.2,415.1,4549.8,487
		L4549.8,487z"/>
	<path class="st9" d="M5349.6,487v654c0.4,70.1,34.8,105.1,103.1,105.1h515.6c67.9-0.9,101.8-36.9,101.8-107.9
		c0-72.8-34.6-109.4-103.8-109.9h-409.9l0.6-544.7c-0.4-69.2-35.2-104.7-104.4-106.5C5384.4,378.5,5350,415.1,5349.6,487L5349.6,487
		z"/>
	<path class="st9" d="M6295.8,434.8c-66,37.5-117.3,91.1-154,160.8c-36.7,69.6-55.1,142.2-55.1,217.8c0,75.1,18.1,147.1,54.5,216.1
		c36.3,69,87.2,122.6,152.7,160.8c65.5,38.2,133.9,57.3,205.3,57.3c71.7,0,140.5-19.1,206.2-57.3c65.7-38.2,116.7-91.8,153.1-160.8
		c36.3-69,54.5-141,54.5-216.1c0-75.5-18.7-148.1-56.1-217.8c-37.4-69.6-88.9-123.2-154.7-160.8c-65.7-37.5-133.4-56.3-203-56.3
		C6429.5,378.5,6361.7,397.3,6295.8,434.8z M6500.4,594.9c34.4,0,68.1,9.3,101.2,27.8c33.1,18.5,58.9,45.2,77.3,80
		c18.5,34.8,27.7,71.2,27.7,109.2c0,38-9,74.2-27.1,108.5c-18,34.4-43.5,61.1-76.4,80c-32.9,19-67.1,28.5-102.8,28.5
		c-36.1,0-70.5-9.5-103.1-28.5c-32.7-19-58.1-45.7-76.4-80c-18.3-34.4-27.4-70.6-27.4-108.5c0-38,9.2-74.4,27.7-109.2
		c18.5-34.8,44.1-61.5,77-80C6431.1,604.2,6465.2,594.9,6500.4,594.9L6500.4,594.9z"/>
</g>
</svg>
